<svg xmlns="http://www.w3.org/2000/svg" viewBox="0 0 960 640" fill="none">
  <rect width="960" height="640" fill="#f6f6f6"/>
  <rect x="32" y="28" width="896" height="584" rx="28" stroke="#161616" stroke-width="3"/>
  <path d="M480 100v96" stroke="#161616" stroke-width="5" stroke-linecap="round"/>
  <path d="M480 196 274 302" stroke="#8a8a8a" stroke-width="4" stroke-linecap="round"/>
  <path d="M480 196l206 106" stroke="#8a8a8a" stroke-width="4" stroke-linecap="round"/>
  <path d="M274 302 146 432" stroke="#b2b2b2" stroke-width="4" stroke-linecap="round"/>
  <path d="M274 302l106 130" stroke="#161616" stroke-width="5" stroke-linecap="round"/>
  <path d="M686 302 570 432" stroke="#b2b2b2" stroke-width="4" stroke-linecap="round"/>
  <path d="M686 302l126 130" stroke="#b2b2b2" stroke-width="4" stroke-linecap="round"/>
  <circle cx="480" cy="84" r="28" fill="#161616"/>
  <circle cx="274" cy="302" r="28" fill="#9a9a9a"/>
  <circle cx="686" cy="302" r="28" fill="#d2d2d2" stroke="#777" stroke-width="3"/>
  <circle cx="146" cy="432" r="24" fill="#ededed" stroke="#b2b2b2" stroke-width="3"/>
  <circle cx="380" cy="432" r="26" fill="#161616"/>
  <circle cx="570" cy="432" r="24" fill="#ededed" stroke="#b2b2b2" stroke-width="3"/>
  <circle cx="812" cy="432" r="24" fill="#ededed" stroke="#b2b2b2" stroke-width="3"/>
  <rect x="126" y="498" width="708" height="10" rx="5" fill="#d0d0d0"/>
  <text x="126" y="580" fill="#161616" font-size="40" font-family="Georgia, 'Times New Roman', serif">Reward-guided Tree Search</text>
</svg>
